<?xml version="1.0" encoding="UTF-8" standalone="no"?>
<!-- Created with Inkscape (http://www.inkscape.org/) -->
<svg xmlns:inkscape="http://www.inkscape.org/namespaces/inkscape" xmlns:rdf="http://www.w3.org/1999/02/22-rdf-syntax-ns#" xmlns="http://www.w3.org/2000/svg" xmlns:xlink="http://www.w3.org/1999/xlink" xmlns:ns1="http://sozi.baierouge.fr" xmlns:cc="http://creativecommons.org/ns#" xmlns:sodipodi="http://sodipodi.sourceforge.net/DTD/sodipodi-0.dtd" xmlns:dc="http://purl.org/dc/elements/1.1/" id="svg2" xml:space="preserve" viewBox="0 0 561 152.62" version="1.1" inkscape:version="0.91 r13725">
  <defs id="defs6">
    <linearGradient id="linearGradient24" y2="280.15" gradientUnits="userSpaceOnUse" x2="-42.581" gradientTransform="matrix(.0000074627 .8 .8 .0008 .000064077 122.1)" y1="280.15" x1="-149.78">
      <stop id="stop26" style="stop-color:#ffffff" offset="0"/>
      <stop id="stop28" style="stop-color:#f4fafa" offset="1"/>
    </linearGradient>
  </defs>
  <g id="g10" transform="matrix(1.25 0 0 -1.25 0 152.62)">
    <g id="g12">
      <g id="g14">
        <g id="g16">
          <g id="g22">
            <path id="path30" style="fill-rule:evenodd;fill:url(#linearGradient24)" d="m393.24 22.799 0.082 1.062c0 0.024 0.055 0.16 0.16 0.399-0.054-0.188-0.093-0.387-0.121-0.602-0.047-0.254-0.086-0.543-0.121-0.859zm-134.72-1.86c0.312-0.043 0.625-0.074 0.941-0.101-0.273 0.015-0.52 0.023-0.742 0.023-1.68 0-3.531-0.387-5.559-1.16l1.68 0.68c1.762 0.343 2.988 0.531 3.68 0.558zm-100.08 88.551c0.348-0.16 0.704-0.32 1.079-0.48-0.266 0.054-0.426 0.093-0.481 0.121-0.211 0.133-0.414 0.254-0.598 0.359zm63-92.559 1.758 0.2 0.801 0.039-2.559-0.239zm-115.64 46.719 0.238 1.723 0.68 0.519c-0.321-0.855-0.625-1.601-0.918-2.242zm-9.321-34.758 3.481 3.079c0.105 0.054 1.293 0.761 3.559 2.121-0.641-0.399-1.508-1-2.598-1.801-1.789-1.305-3.27-2.438-4.442-3.399zm-41.718 0.801c0.718 2.238 1.133 3.653 1.238 4.238-0.027-0.558-0.105-1.117-0.238-1.679l-0.241-1.442-0.04-0.078c-0.132-0.16-0.199-0.226-0.199-0.203-0.027-0.051-0.043-0.09-0.043-0.117l-0.476-0.719z" inkscape:connector-curvature="0"/>
          </g>
        </g>
      </g>
      <path id="path32" style="fill-rule:evenodd;fill:#cdd5d9" d="m419.88 30.935c-6.691-0.05-11.399-0.117-14.117-0.199-4.614-0.16-8.215-1.226-10.801-3.199l0.281 0.32 2.117 1.36c-1.812 0.371-2.972 0.89-3.48 1.558-0.453 0.614-0.68 1.746-0.68 3.399 0 3.386 1.442 6.656 4.321 9.8l0.441 0.719c-7.281-2.371-11.684-3.863-13.199-4.476-1.84-0.778-3.16-2.403-3.961-4.883-0.613-2-2.856-4.266-6.723-6.801-4-2.348-6.277-3.812-6.84-4.398-0.105-1.469 0.696-2.442 2.403-2.918 0.507-0.161 2.414-0.414 5.718-0.762 2.614-0.266 4.508-0.785 5.68-1.559 1.652-1.148 2.402-3 2.242-5.562-6.293-2.266-12.883-3.824-19.761-4.68-4.293-0.531-8.958-0.801-14-0.801-6.665 0-12.907 0.934-18.719 2.801-3.254 1.281-5.879 2.293-7.879 3.039l-0.36 1.801c0.079 2.562 0.704 4.402 1.879 5.52 1.813 1.734 5.094 2.347 9.84 1.839-0.054 1.282-0.918 2.321-2.601 3.121-2.317 0.829-4.133 1.465-5.438 1.918-5.226 1.84-7.84 4.977-7.84 9.403 0 2.613 1.344 7.039 4.039 13.277 3.149 7.254 6.387 12.027 9.719 14.32 4.719 3.254 7.735 5.614 9.039 7.082 2.403 2.774 3.602 6.266 3.602 10.481 0 3.199-0.535 7.199-1.602 12-1.09 4.801-1.637 7.973-1.637 9.519l0.2 5.641 0.039 0.078c1.761 0.266 3.746 0.629 5.961 1.082 7.011 1.438 10.64 2.172 10.879 2.199-0.188-0.558-0.305-1.734-0.36-3.519-0.027-0.883-0.027-1.734 0-2.563 0-1.972-0.773-3.558-2.32-4.757-0.668-0.536-2.348-1.403-5.039-2.602-2.266-1.039-3.883-2.133-4.84-3.277-1.414-1.657-2.016-3.883-1.801-6.684 1.332-0.078 4.453-0.039 9.36 0.121 4.535 0 8.574-1.187 12.121-3.558 4.027-2.719 5.824-6.149 5.398-10.282-0.16-0.187-0.414-0.718-0.758-1.597-0.347-0.907-0.59-1.442-0.722-1.602-0.614-0.64-1.118-1.133-1.52-1.48-0.48-0.375-1.797-1.375-3.957-3-1.066-0.426-2.015-0.668-2.84-0.719h1.758c-0.187-0.133-0.68-0.375-1.48-0.723l-1.399-0.797c1.36 0.371 3.012 0.864 4.957 1.481 1.176-0.11 2.469 0.117 3.883 0.68 1.414 0.558 2.426 1.238 3.039 2.039 0.719 0.906 1.32 1.984 1.801 3.238 0.426 1.066 0.64 1.906 0.64 2.519 0 3.336-0.453 5.934-1.359 7.801-0.535 1.121-1.535 2.348-3 3.68-1.441 1.336-2.441 2.586-3 3.762-0.91 1.918-1.363 4.597-1.363 8.039 0 2 0.469 3.425 1.402 4.281 0.559 0.504 1.719 1 3.481 1.48 4.187 1.145 7.215 3.465 9.078 6.957 4.16-0.211 10.429-0.16 18.801 0.161 7.679 0 14.519-0.907 20.519-2.719-1.144-0.32-2.133-0.653-2.957-1-1.551-0.613-2.32-1.266-2.32-1.961 0-1.227 0.972-3.012 2.918-5.359 1.015-1.254 2.308-2.719 3.879-4.399-2.266 0.238-3.664 0.359-4.2 0.359l-1.199-0.082c0.828-0.984 1.442-1.746 1.84-2.277 0.215-0.133 2.773-1.402 7.68-3.801-0.321 0.133-0.625 0.239-0.918 0.321-0.641 0.16-0.949 0.093-0.918-0.2-0.348-2.668-2.242-5.109-5.684-7.32-3.359-1.68-5.039-2.586-5.039-2.723 0-0.16 0.68-2.078 2.039-5.757 1.36-4.508 2.039-8.934 2.039-13.282 0-1.597-0.398-2.8-1.199-3.597-0.371-0.375-1.25-0.922-2.641-1.641-2.558-1.281-3.839-3.75-3.839-7.402 0-0.934 1.722-3.957 5.16-9.078 4-5.973 6.039-9.039 6.117-9.2zm21.601 39.84c-0.425-0.586-0.746-0.945-0.96-1.078-0.559-0.402-1.372-0.601-2.442-0.601-0.769 0-1.355 0.386-1.758 1.16-0.64 1.281-0.961 3.668-0.961 7.16 0 1.066 0.188 2.734 0.563 5 0.957-1.813 2.226-4.133 3.801-6.961 1.117-2.106 1.703-3.664 1.757-4.68zm-132.48-54.441c0.398 0.027 0.84 0.043 1.32 0.043 1.36 0.051 2.442 0.051 3.239 0l2.562-0.52c-2.348 0.317-3.789 0.481-4.32 0.481-3.547 0-7.336-1.043-11.36-3.121-4-2.082-7.867-3.121-11.601-3.121-3.785 0-9.039 1.546-15.762 4.64-6.449 3.309-10.199 5.16-11.238 5.563 2.773 1.437 5.519 2.398 8.238 2.879 0.535 0.105 2.711 0.332 6.524 0.679 5.117 0.481 10.105 2.762 14.957 6.84-4.774-0.586-7.2-0.879-7.282-0.879-1.011 0-2.797 0.399-5.355 1.199-2.563 0.829-4.188 1.243-4.883 1.243-1.148 0-3.426-0.336-6.84-1-3.094-0.59-5.453-1.11-7.078-1.563-2.644-0.746-5.656-2.453-9.043-5.121-3.387-2.613-5.078-4.559-5.078-5.84 0-0.476 0.453-1.039 1.359-1.68-0.773-0.292-2.039-0.664-3.8-1.117-1.625-0.402-2.52-0.601-2.68-0.601-0.535 0-2.668 0.308-6.402 0.922-1.653 1.89-3.559 3.316-5.719 4.277-1.492 0.668-2.238 1.348-2.238 2.039 0 2.375 3.238 4.551 9.718 6.523 1.625 0.477 3.852 1.106 6.68 1.879 2.027 0.559 3.039 1.012 3.039 1.36 0 0.535-0.199 1.039-0.598 1.519-0.668 0.774-1.773 1.16-3.32 1.16-1.254 0-2.961-0.398-5.121-1.199-2.133-0.773-3.758-1.16-4.879-1.16-3.332 0-5.879 1.879-7.641 5.641-1.734 3.679-2.453 8.558-2.16 14.64l-0.359-0.679c-1.785-4.454-4.309-7.895-7.559-10.321-3.203-2.375-6.8-3.562-10.8-3.562-1.122 0-2.149 0.16-3.082 0.48-1.145 0.403-2.708 0.68-4.68 0.84-0.453-0.023-0.719-0.051-0.801-0.078-0.078-0.082-0.117-0.309-0.117-0.68 0-0.562 1.957-2.894 5.879-7 4.133-4.375 6.945-6.562 8.441-6.562 4.133 0 7.266-0.387 9.399-1.156 2.132-0.778 3.199-1.895 3.199-3.364 0-0.453-0.055-1.144-0.16-2.078-0.133-1.015-0.254-1.64-0.36-1.883-1.867-0.398-5.652-1.664-11.359-3.797-4.934-1.839-11.469-3.386-19.602-4.64-0.211 0.504-1.359 1.801-3.437 3.879-2.16 2.16-3.563 3.894-4.203 5.199-0.024 0.187-0.172 0.652-0.438 1.402v-0.402l-0.039 0.082 0.039 0.398c-0.242 0.586-0.535 1.321-0.879 2.204-0.722 1.785-1.148 2.812-1.281 3.078-0.047 0.093-0.074 0.242-0.082 0.441v-0.242c-0.453 0.773-0.773 1.308-0.957 1.601-0.27 0.481-0.402 1.372-0.402 2.68 0 0.106 1.148 2.852 3.441 8.242 2.188 5.145 3.094 9.278 2.719 12.399-1.895-5.547-3.199-9.215-3.918-11-0.453-1.121-0.84-1.828-1.16-2.121-0.188-0.16-0.52-0.399-1-0.719-0.188-0.106-0.336-0.199-0.442-0.281-0.215-0.106-0.347-0.16-0.398-0.16-0.11 0-0.203-0.012-0.281-0.04-2.399-0.293-3.829-0.507-4.282-0.64-2.078-0.559-4.359-1.707-6.839-3.438l-6.239-4.363 1.239 0.602c2.535 1.199 5.359 1.8 8.48 1.8 1.039 0 2.094-0.199 3.16-0.601 0.055-0.32 0.481-1.586 1.281-3.801 0.481-1.359 0.719-3.199 0.719-5.519 0-2.907-0.558-4.907-1.68-6-0.265-0.293-0.652-0.614-1.16-0.958-0.347-0.32-0.519-0.707-0.519-1.16 0-1.496 0.133-3.148 0.398-4.961 0.215-1.468 0.281-2.398 0.203-2.8-0.187-1.039-2.226-1.907-6.121-2.598-3.176 2.078-6.414 4.051-9.722 5.918-3.2 1.707-5.399 2.906-6.598 3.601-3.574 2.079-6.309 4.825-8.199 8.239-0.989 1.785-2.293 3-3.922 3.64-0.852 0.321-2.414 0.586-4.68 0.801-2.027 0.16-3.586 0.531-4.68 1.117-1.652 0.856-3 2.403-4.039 4.641l0.321-0.52c3.547 2.829 5.613 5.36 6.199 7.602 0.16 2.426 0.641 4.52 1.441 6.281 0.106 0.184 0.785 0.559 2.039 1.117 1.625 0.723 2.918 1.403 3.879 2.04 3.653 2.429 5.481 5.828 5.481 10.203 0 3.066-0.586 6.093-1.762 9.078-1.387 2.933-2.293 5.015-2.719 6.242l-0.121-1.082c-3.066-5.598-6.531-8.934-10.398-10-1.067-0.266-2.559-0.453-4.481-0.559-1.761-0.082-3.027-0.254-3.8-0.519l1-0.641c0.535-0.32 1.48-0.574 2.839-0.762 0.961-0.105 1.883-0.16 2.762-0.16 0.531 0 4.188 0.043 10.961 0.121 0.184-0.668 0.277-1.254 0.277-1.757 0-1.364-0.879-2.723-2.64-4.082-0.879-0.692-2.117-1.493-3.719-2.399 0.453 0.293 1.199 0.879 2.242 1.758 1.305 1.094 2.051 1.828 2.238 2.199l0.161 0.762c-1.922-1.414-4.282-2.188-7.082-2.32-3.864-0.188-6.957-0.641-9.278-1.36-1.336-0.426-3.879-1.695-7.64-3.801-3.575-2.027-5.68-3.105-6.321-3.238-2.215-0.48-3.558-0.816-4.039-1-0.855-0.348-1.574-0.949-2.16-1.801-0.851-1.254-3.254-5.746-7.199-13.48-0.723-0.215-2.121-0.332-4.203-0.36-3.172 0-5.532-0.054-7.078-0.16l0.961 0.118 0.16 0.761c-0.188 0.879-0.309 1.36-0.36 1.442-0.297 0.371-1.066 0.507-2.32 0.398 0.32 0.641 0.477 1.375 0.477 2.199l-0.118 4.16-0.039 0.282-0.48-0.242c-0.16-0.051-0.414-0.079-0.762-0.079-1.785 0-3.121 0.52-4 1.559-0.48 0.562-0.773 1.215-0.879 1.961l-0.039 0.719c-0.297-0.774-0.441-1.559-0.441-2.36 0-1.226 0.508-2.215 1.519-2.961 0.989-0.746 1.481-1.797 1.481-3.156 0-2.933-1.199-5.269-3.602-7l3.563 1.117c-3.067-1.117-5.336-1.906-6.801-2.359-2.559-0.828-4.586-1.242-6.082-1.242-2.293 0-5.559 0.281-9.797 0.843-3.336 0.454-5.855 0.52-7.562 0.2l1.882 0.48c1.278 0 2.383 0.227 3.317 0.68 0.906 0.48 1.363 1.039 1.363 1.68 1.543-0.293 3.051-0.082 4.52 0.64 1.464 0.719 2.453 1.801 2.957 3.238 0.48 1.469 0.335 2.868-0.438 4.204-0.773 1.332-1.988 2.304-3.641 2.918 0.133 1.492 0.2 2.507 0.2 3.039 0 2.722-0.735 5.429-2.2 8.121-1.171 2.187-2.425 3.773-3.761 4.758 1.093 0.988 2.949 3.347 5.562 7.082 3.785 5.386 6.293 8.878 7.52 10.48 6.961 9.094 12.707 13.641 17.238 13.641 0.297 0 2.309-0.922 6.043-2.762 3.84-1.891 7.277-2.957 10.32-3.199-1.148 1.574-2.961 3.121-5.441 4.64-2.906 1.602-5.067 2.879-6.481 3.84-5.144 3.602-7.839 9.055-8.078 16.36-0.562-0.559-3.066-3.2-7.523-7.918-4.692-4.481-8.41-6.774-11.16-6.883l-1.598-0.16c2.348-0.344 4.481-0.477 6.399-0.399 0.75-0.187 1.175-1.519 1.281-4-2-0.879-2.852-1.305-2.559-1.281-1.762-0.371-4.094-2.254-7-5.641-3.043-3.597-4.894-5.543-5.562-5.84-0.055 0.403-0.2 1.364-0.438 2.883-0.269 1.598-0.457 2.653-0.562 3.16l-0.239 1.239c0.239-3.442 0.344-6 0.321-7.68-0.375-0.105-1.336-0.281-2.883-0.52-1.465-0.214-2.254-0.32-2.359-0.32-1.2 0-2.438 0.16-3.719 0.481l-1 0.433c0.933-1.094 1.441-1.668 1.519-1.719 0.215-0.132 0.922-0.359 2.121-0.679 2.829-2.082 4.336-3.227 4.52-3.442-0.348-0.558-0.891-1.332-1.641-2.32-0.586-0.961-0.879-1.973-0.879-3.039 0-0.535 0.227-2.668 0.68-6.402 0-0.289-0.078-0.719-0.238-1.278-0.082-0.242-0.188-0.519-0.321-0.84-0.425-1.066-0.878-1.867-1.359-2.402l-0.043-0.039c-0.984-0.828-1.879-1.359-2.68-1.598-0.906-0.242-2.41-0.363-4.519-0.363-0.852 0-2.094 0.188-3.719 0.563l-1.359 0.519 3.121-1.719c-0.215 0.024-1.215 0.266-3 0.719-1.684 0.426-2.734 0.641-3.16 0.641 1.093-2.293 3.957-3.442 8.597-3.442 4.055 0 6.961 0.559 8.719 1.68 2.59 1.68 4.734 2.734 6.442 3.16 0.906-1.199 1.441-3.117 1.601-5.758 0.024-0.242 0.039-2.054 0.039-5.441 0-4.375-1.492-7.348-4.48-8.918-1.707-0.91-2.758-1.562-3.16-1.961-0.985-0.961-1.52-2.359-1.598-4.199-1.707-0.641-3.27-1.094-4.684-1.363-1.383-0.239-2.933-0.36-4.636-0.36-2.614 0-6.282 1.227-11 3.684-5.79 2.984-9.067 6.305-9.84 9.957 0.398 0.508 1.05 2.16 1.957 4.961 0.883 2.801 1.32 4.586 1.32 5.359 0 2.988-0.785 5.508-2.359 7.559-1.602 2.027-2.399 3.308-2.399 3.84 0 1.734 1.145 3.496 3.438 5.281 2.613 2.055 4.293 4.535 5.043 7.441v5.879c-0.243-0.773-0.603-2.25-1.083-4.437-0.293-1.364-0.625-2.309-1-2.84-0.879-1.309-3.414-1.84-7.602-1.602 0.137-5.922-0.73-9.84-2.598-11.761-0.96-0.985-2.828-1.614-5.601-1.879-0.211 0.906-0.84 2.265-1.879 4.082-0.668 1.144-1 3.222-1 6.238 0 6.719 0.695 11.906 2.078 15.559 0.856 2.238 1.336 3.546 1.442 3.921 0.425 1.571 0.64 3.465 0.64 5.68 0.051-0.883-0.055-2.469-0.32-4.762 0-0.293 0.375-0.613 1.121-0.961 0.559-0.238 1.066-0.414 1.519-0.519 0.665-0.238 1.575-0.707 2.719-1.399 1.121-0.585 2.348-0.882 3.68-0.882 2.535 0 4.707 1.043 6.519 3.121 1.497 1.707 2.508 3.734 3.043 6.082 0.266 0.613 0.559 2.371 0.879 5.277 0.239 2.481 0.36 4.137 0.36 4.961 0 4.613-0.121 7.559-0.36 8.84-0.586-0.238-1.148-0.414-1.679-0.52 0.504 0.161 3.132 1.774 7.879 4.84 3.894 2.535 7.039 3.641 9.441 3.321l-1-0.161c1.68-1.464 3.586-2.519 5.719-3.16 1.547-0.48 3.105-0.719 4.679-0.719 1.469 0 2.746 0.481 3.84 1.438 1.36 1.148 2.867 3.309 4.52 6.48 3.336 1.602 7.656 2.723 12.961 3.36 4.082 0.508 9.226 0.762 15.441 0.762 5.813 0 16.238-0.922 31.277-2.762 13.977-1.68 22.563-2.399 25.762-2.16 2.133-1.571 4.028-3.371 5.68-5.399 1.547-1.894 2.32-3.265 2.32-4.121 0-1.57-0.547-2.773-1.64-3.598-0.665-0.535-1.946-1.105-3.84-1.722-4.266-1.36-7-3.36-8.2-6-1.734-3.785-4.226-6.492-7.48-8.117-2.559-1.254-5.719-1.883-9.48-1.883l-6.879 0.242 1.281-0.16c0.824-0.133 2.691-0.481 5.598-1.039 2.906-0.508 5.32-0.762 7.242-0.762 1.41 0 2.906 0.348 4.476 1.039 1.574 0.723 3.176 1.082 4.801 1.082 4.188 0 7.32-1.039 9.402-3.121 1.254-1.254 2-1.973 2.239-2.16 0.933-0.641 2.121-0.961 3.558-0.961 0.75 0 1.242 0.309 1.481 0.922 0.242 0.961 0.453 1.801 0.64 2.519 0.829 3.172 3.106 6.106 6.84 8.801 2.426 1.758 4.387 4.078 5.879 6.961 1.387 2.719 2.055 5.277 2 7.68-0.023 0.504-0.25 0.812-0.68 0.918h-0.679c2.054 0.426 4.226 1.254 6.519 2.48 1.364 0.696 3.364 1.84 6 3.442 5.176 2.906 10.336 4.359 15.481 4.359 3.386 0 6.722-0.441 10-1.32 4.668-1.227 7.679-1.95 9.043-2.16 0.105-0.293 0.597-1.696 1.476-4.2 0.828-2.453 1.242-3.922 1.242-4.402 0-4.504-2.746-7.863-8.242-10.078-3.758-1.52-5.652-2.281-5.679-2.281-1.7-0.912-2.56-2.017-2.56-3.326 0-1.73 1.172-4.238 3.52-7.519 2.16-3.012 3.468-4.52 3.921-4.52 0.266 0 0.825 0.121 1.68 0.36 0.824 0.242 1.371 0.359 1.641 0.359 1.437 0 2.703-0.453 3.797-1.359 1.121-0.934 1.679-2.039 1.679-3.321 0-2.343-2.691-5.64-8.078-9.879-5.519-4.371-10.055-6.558-13.601-6.558-1.918 0-3.305 0.066-4.161 0.199l0.321-0.16c0.64-0.293 2.883-0.801 6.722-1.52 3.758-0.718 5.946-1.078 6.559-1.078 0.773 0 1.867 0.653 3.281 1.957 2.957 2.696 4.531 4.11 4.719 4.242 5.121 4.157 11.039 6.239 17.762 6.239 9.172 0 15.863-2.094 20.078-6.282 0.851-0.824 1.988-2.253 3.398-4.277 0.91-1.308 1.696-1.961 2.364-1.961 2.558 0 5.41 1.613 8.558 4.84 3.227 3.332 4.84 6.508 4.84 9.52 0 17.066-1.801 27.718-5.398 31.96 2.023 0.051 8.078 1.321 18.16 3.801 11.785 2.879 20.199 4.746 25.238 5.598-0.398-0.504-0.602-1.027-0.602-1.559 0-1.441 0.79-3.254 2.364-5.441 1.652-2.32 3.531-4.078 5.636-5.281 0.215-0.106 2.614-0.36 7.204-0.758 4.32-0.348 6.625-0.52 6.918-0.52 0.828 0 1.492 0.278 2 0.84 0.375 0.399 0.707 1.039 1 1.918 0.746-1.226 1.707-2.73 2.878-4.519 0.774-1.547 1.161-3.293 1.161-5.239 0-2.586-0.266-4.773-0.797-6.562-0.59-2.051-1.485-3.36-2.684-3.918-2.746-1.309-5.105-3-7.078-5.082-2.801-2.934-4.562-6.41-5.281-10.438-0.692-3.894-1.281-8.336-1.758-13.32-0.535-3.309-1.816-5.586-3.84-6.84-1.387-0.851-5-1.785-10.844-2.801-4.984-0.851-8.199-1.293-9.64-1.32 7.601-2.211 12.402-3.867 14.402-4.957 3.707-1.977 5.559-4.734 5.559-8.281 0-1.336-1.414-3.254-4.239-5.762-3.629-3.172-5.933-5.492-6.921-6.957l2.082 0.84 2.64 0.68c0.508 0.078 1.121 0.132 1.84 0.156zm-82.039 96.203c0.293 0.051 0.934 0.254 1.918 0.598 1.043 0.347 1.973 0.519 2.801 0.519 0.375 0 0.746-0.078 1.121-0.238 0.879-0.426 2.16-1.309 3.84-2.641-0.508-0.453-0.762-1.027-0.762-1.719 0-4.828 1.453-8.16 4.359-10 1.547-0.96 4.762-1.839 9.641-2.64 4.508-0.746 7.707-1.934 9.601-3.559 2.907-2.48 4.36-6.695 4.36-12.64 0-2.403-2-5.055-6-7.961-4.028-2.934-7.735-4.399-11.121-4.399-5.465 0-11.453 2.664-17.957 8-2.242 1.84-4.242 3.746-6 5.719-1.551 1.734-2.321 2.785-2.321 3.16 0 1.305 0.532 2.266 1.598 2.879 0.641 0.375 1.816 0.949 3.52 1.719 3.386 2.055 5.082 6.906 5.082 14.562 0 1.039-0.575 2.399-1.719 4.078-1.176 1.735-1.828 3.254-1.961 4.563zm-128.28-57.046-4.559-2.039c-2.961-0.051-6.586-0.305-10.883-0.758-4.078-0.43-6.933-0.641-8.558-0.641-3.012 0-5.625 0.614-7.84 1.84l1.281-0.961c0.984-0.718 2.117-1.414 3.399-2.078 1.652-0.883 2.867-1.32 3.64-1.32 0.266 0 2.918 0.051 7.961 0.16 5.145 0.106 8.359 0.117 9.641 0.039 2.531-0.16 4.531-0.652 6-1.48 1.304-0.746 2.851-1.121 4.636-1.121 2.774 0 5.215 1.375 7.321 4.121 2 2.586 3 5.414 3 8.48 0 1.653-0.598 3.961-1.797 6.918-1.281 3.176-2.656 5.508-4.121 7 0-0.211-0.336-2.691-1-7.437h-0.641l-0.121-0.84c-0.16-0.215-0.691-1.16-1.598-2.84-0.906-1.652-1.386-2.547-1.441-2.68l-4.32-4.363zm-94.52 31.641c-0.453 4.132-0.68 6.867-0.68 8.199 0 0.695 0.145 1.64 0.442 2.84 0.316 1.308 0.652 2.226 1 2.761 3.117-2.695 6.09-4.347 8.918-4.961 0.719-0.16 1.148-0.437 1.281-0.839 0.184-0.426 0.277-1.559 0.277-3.399 0-3.199-0.132-5.242-0.398-6.121-0.559-1.894-1.945-2.84-4.16-2.84-1.36 0-2.442 0.375-3.238 1.121-2.215 2.106-3.364 3.188-3.442 3.239zm-0.879-36.719c4.746 0.238 7.957 0.973 9.641 2.199 0.105-1.281 0.504-2.867 1.199-4.758 0.664-1.816 1-3.121 1-3.922 0-0.984-0.226-1.828-0.68-2.519-0.535-0.879-1.32-1.32-2.363-1.32-0.984 0-1.824 0.093-2.519 0.281-0.825 0.215-1.731 0.625-2.719 1.242-1.199 1.227-2.039 2.812-2.52 4.758-0.695 2.668-1.039 4.012-1.039 4.039z" inkscape:connector-curvature="0"/>
      <path id="path34" style="fill-rule:evenodd;fill:#b7bfca" d="m420.64 96.615c-1.575 1.68-2.868 3.149-3.879 4.402-1.95 2.344-2.922 4.133-2.922 5.36 0 0.691 0.773 1.344 2.32 1.957 0.828 0.347 1.813 0.683 2.961 1 1.305 0.64 3.547-0.199 6.719-2.52 1.652-1.226 3.547-2.797 5.68-4.718-1.387-0.454-3.106-1.399-5.161-2.84-1.867-1.282-3.773-2.16-5.718-2.641zm5.757-64.641c-1.57-0.371-2.691-0.597-3.359-0.679-0.078-0.028-1.133-0.145-3.16-0.36-0.078 0.161-2.117 3.227-6.117 9.2-3.442 5.121-5.16 8.148-5.16 9.082 0 3.652 1.277 6.117 3.839 7.398 1.387 0.719 2.266 1.27 2.641 1.641 0.797 0.8 1.199 2 1.199 3.601 0 4.344-0.679 8.774-2.039 13.278-1.363 3.683-2.043 5.601-2.043 5.761 0 0.133 1.68 1.039 5.043 2.719 3.438 2.215 5.332 4.656 5.68 7.32-0.027 0.293 0.281 0.36 0.918 0.2 0.293-0.079 0.601-0.184 0.922-0.317 3.093 0 5.73-0.828 7.918-2.48 2.16-1.629 3.242-3.602 3.242-5.922-0.375-2.266-0.563-3.934-0.563-5 0-3.492 0.321-5.879 0.961-7.16 0.403-0.774 0.989-1.16 1.758-1.16 1.07 0 1.883 0.199 2.442 0.601 0.214 0.133 0.535 0.492 0.96 1.078 0.133-0.613 0.2-1.265 0.2-1.957 0-3.469-0.907-5.75-2.719-6.844-1.172-0.691-2.535-0.851-4.082-0.476 0.133 1.437 0.066 3.293-0.199 5.558 0.132 0.961 0.199 1.708 0.199 2.239 0 3.547-1.332 6.402-4 8.562-0.957 0.801-2.438 1.785-4.438 2.961-3.015 1.731-4.906 2.84-5.679 3.317l-0.84 0.441c1.785-2.641 3.543-4.934 5.277-6.879 0.934-1.039 2-2.176 3.199-3.402 1.309-1.571 1.961-4.531 1.961-8.879 0-3.918-1.453-6.774-4.359-8.559-1.68-1.015-2.691-1.683-3.039-2-0.906-0.906-1.359-2.121-1.359-3.64l0.359-9.922c0-1.52 0.414-3.172 1.238-4.957 0.879-1.867 1.949-3.321 3.199-4.364zm-103.48-18.277c-1.363 0.504-2.43 0.879-3.203 1.117l-3.598 1.043-2.562 0.516c3.867 2.43 7.043 4.387 9.519 5.883 0.563 0.347 0.844 0.828 0.844 1.441 0 1.438-1.43 3.652-4.281 6.637-2.696 2.828-4.321 4.867-4.883 6.121 0.32-1.254 0.906-2.574 1.762-3.961 1.199-2 1.824-3.16 1.878-3.477 0-0.562-0.027-1.121-0.078-1.683v-0.039c-0.453-0.746-2-2.149-4.64-4.199-3.282-2.536-5.696-4.602-7.242-6.2-0.293-0.402-0.934-0.867-1.918-1.402l-2.082-0.84c0.988 1.469 3.292 3.785 6.921 6.961 2.825 2.508 4.239 4.426 4.239 5.758 0 3.547-1.852 6.308-5.559 8.281-2 1.094-6.801 2.746-14.402 4.961 1.441 0.027 4.656 0.465 9.64 1.32 5.844 1.012 9.453 1.946 10.844 2.797 2.024 1.254 3.305 3.535 3.84 6.84 0.477 4.988 1.066 9.43 1.758 13.32 0.719 4.028 2.48 7.508 5.281 10.442 1.973 2.082 4.332 3.773 7.078 5.082 1.199 0.558 2.094 1.863 2.684 3.918 0.531 1.785 0.797 3.972 0.797 6.558 0 1.95-0.387 3.696-1.161 5.243-1.171 1.785-2.132 3.293-2.878 4.519 0.613 1.094 1.402 1.961 2.359 2.602 0.48 0.293 0.906 0.492 1.281 0.597 0.668 0 1.149-0.226 1.442-0.679 0.238-0.375 0.453-1.149 0.636-2.321 0.59 0.293 1.055 0.735 1.403 1.321 0.586 1.066 1.625 3.547 3.121 7.441l-0.203-5.641c0-1.546 0.546-4.718 1.64-9.519 1.067-4.801 1.602-8.801 1.602-12 0-4.215-1.199-7.707-3.602-10.481-1.304-1.468-4.32-3.828-9.039-7.082-3.332-2.293-6.574-7.066-9.719-14.32-2.695-6.238-4.043-10.664-4.043-13.277 0-4.426 2.614-7.563 7.84-9.403 1.309-0.453 3.121-1.089 5.442-1.918 1.679-0.8 2.547-1.839 2.601-3.121-4.746 0.508-8.027-0.105-9.84-1.839-1.175-1.118-1.8-2.958-1.882-5.52l0.363-1.797zm68.476 19.52-2.918 5.078c-2.773-3.598-4.746-6.211-5.918-7.84-2.054-2.801-3.082-4.746-3.082-5.84s0.52-1.945 1.559-2.559c0.586-0.347 1.773-0.8 3.563-1.359 3.57-1.094 5.546-2.707 5.918-4.84l-7.243-2.523c0.161 2.562-0.586 4.414-2.238 5.562-1.172 0.774-3.066 1.293-5.68 1.559-3.308 0.348-5.214 0.601-5.718 0.762-1.707 0.48-2.508 1.453-2.403 2.918 0.563 0.586 2.84 2.054 6.84 4.398 3.867 2.535 6.11 4.801 6.723 6.801 0.797 2.48 2.117 4.109 3.957 4.883 1.519 0.613 5.922 2.105 13.203 4.48l-0.441-0.723c-2.883-3.144-4.321-6.414-4.321-9.8 0-1.653 0.227-2.785 0.68-3.399 0.508-0.668 1.668-1.187 3.48-1.558l-2.121-1.36-1.84 2.278-2 3.082zm-384.56 8.398c0.988-0.613 1.894-1.027 2.719-1.242 0.695-0.184 1.535-0.277 2.519-0.277 1.043 0 1.828 0.437 2.363 1.32 0.454 0.691 0.68 1.531 0.68 2.519 0 0.797-0.336 2.106-1 3.918-0.695 1.895-1.094 3.481-1.199 4.762-1.684-1.226-4.895-1.961-9.641-2.199-0.027 0-0.16 0.265-0.402 0.797 2.773 0.269 4.641 0.894 5.601 1.883 1.868 1.918 2.735 5.839 2.598 11.757 4.188-0.238 6.723 0.293 7.602 1.602 0.375 0.531 0.707 1.48 1 2.84 0.48 2.187 0.84 3.664 1.082 4.437v-5.879c-0.75-2.906-2.43-5.386-5.043-7.437-2.293-1.789-3.438-3.551-3.438-5.281 0-0.536 0.797-1.817 2.399-3.84 1.574-2.055 2.359-4.574 2.359-7.563 0-0.773-0.437-2.558-1.32-5.359-0.907-2.801-1.559-4.453-1.957-4.957-0.028 0.105-0.348 0.625-0.961 1.558-0.586 0.957-0.906 1.465-0.961 1.52l-1.84 1.918c-0.078 0.059-1.133 1.121-3.16 3.203zm37.082-20.121c0.078 1.84 0.613 3.242 1.598 4.203 0.402 0.399 1.453 1.051 3.16 1.957 2.988 1.574 4.48 4.547 4.48 8.922 0 3.387-0.015 5.199-0.039 5.441-0.16 2.637-0.695 4.559-1.601 5.758-1.708-0.426-3.852-1.48-6.442-3.16-1.758-1.121-4.664-1.68-8.719-1.68-4.64 0-7.504 1.149-8.597 3.438 0.426 0 1.476-0.211 3.16-0.637 1.785-0.453 2.785-0.695 3-0.719 0.719-0.214 1.613-0.402 2.68-0.562 0.878-0.106 1.57-0.16 2.078-0.16 2.453 0 4.961 1 7.519 3 2.028 1.547 3.508 3.16 4.442 4.84 1.332-0.985 2.586-2.575 3.757-4.758 1.469-2.696 2.204-5.403 2.204-8.121 0-0.532-0.067-1.547-0.204-3.039-0.773 1.281-1.343 2.304-1.718 3.078l-0.321 0.801c0.055-0.399 0.36-1.493 0.922-3.278 0.531-1.629 0.774-2.59 0.719-2.883-0.105-0.586-0.52-2-1.238-4.238-0.641-0.91-1.469-1.469-2.481-1.68-1.386-0.347-2.32-0.668-2.801-0.961l0.84-0.359c-0.64-0.32-1.519-1.043-2.64-2.16-0.985-0.988-1.707-1.801-2.16-2.441l-1.598-0.602zm0.879 29.402c0.16 0.559 0.238 0.985 0.238 1.278-0.453 3.734-0.68 5.867-0.68 6.402 0 1.066 0.293 2.082 0.879 3.039 0.75 0.988 1.297 1.762 1.641 2.32 0.348-0.48 0.519-1.132 0.519-1.961 0-0.238-0.226-0.757-0.679-1.558-0.481-0.774-0.719-1.32-0.719-1.641 0-0.265 0.215-0.535 0.641-0.801 0.425-0.265 0.64-0.531 0.64-0.8-0.988-2.614-1.816-4.703-2.48-6.278zm79.558-22.281c-1.011 1.707-2.839 3.242-5.48 4.602-3.094 1.57-6.32 2.316-9.68 2.238 1.707 0.988 4.629 2.949 8.762 5.879 3.812 2.695 6.16 4.43 7.039 5.203 4.215 1.332 6.441 2.051 6.68 2.16 0.054 0.024 0.132 0.067 0.242 0.117 1.598 0.907 2.84 1.707 3.719 2.403 1.757 1.359 2.64 2.718 2.64 4.078 0 0.508-0.093 1.094-0.281 1.761-6.773-0.082-10.426-0.121-10.961-0.121-0.879 0-1.801 0.055-2.758 0.161-1.359 0.187-2.308 0.441-2.84 0.761l-1 0.637c0.774 0.27 2.039 0.441 3.797 0.523 1.922 0.106 3.414 0.289 4.481 0.559 3.867 1.066 7.336 4.398 10.402 10l0.117 1.078c0.43-1.226 1.336-3.305 2.723-6.238 1.172-2.988 1.758-6.016 1.758-9.082 0-4.371-1.824-7.774-5.481-10.199-0.957-0.641-2.25-1.321-3.879-2.039-1.254-0.563-1.933-0.934-2.039-1.122-0.8-1.757-1.281-3.851-1.441-6.281-0.586-2.238-2.652-4.773-6.199-7.597l-0.321 0.519zm-74.758 41.481-0.922-0.399c0.027 1.68-0.078 4.238-0.321 7.68l0.243-1.242c0.105-0.504 0.293-1.559 0.558-3.161 0.238-1.519 0.387-2.48 0.442-2.878zm-1.282-47.239c0.399 0.344 1.2 0.797 2.399 1.36 0.961 0.453 1.722 0.785 2.281 1 0-0.641-0.453-1.2-1.359-1.684-0.934-0.449-2.039-0.676-3.321-0.676zm33.239 3.16c-1.278-0.214-2.907-0.574-4.879-1.082l-3.559-1.121c2.399 1.735 3.598 4.067 3.598 7 0 1.36-0.492 2.414-1.481 3.16-1.011 0.747-1.519 1.735-1.519 2.961 0 0.801 0.148 1.586 0.441 2.36l0.039-0.719c0.106-0.746 0.403-1.402 0.879-1.961 0.883-1.039 2.215-1.559 4-1.559 0.348 0 0.602 0.028 0.762 0.079l0.48 0.242 0.039-0.281 0.121-4.161c0-0.828-0.16-1.558-0.48-2.199 1.254 0.106 2.027-0.027 2.32-0.402 0.055-0.078 0.172-0.559 0.36-1.438l-0.16-0.761-0.961-0.118zm100.64-9.16c0-1.656-0.465-2.883-1.398-3.683-0.961-0.801-1.442-1.371-1.442-1.719s0.536-0.906 1.602-1.68c1.066-0.746 1.559-2.105 1.48-4.082-1.12-0.691-2.06-1.277-2.84-1.758-1.38-0.8-2.25-1.281-2.6-1.441-1.57-1.094-2.75-1.773-3.52-2.039-2.027-0.668-4.453-0.602-7.281 0.199 3.895 0.695 5.934 1.563 6.121 2.602 0.078 0.398 0.012 1.332-0.199 2.8-0.266 1.813-0.402 3.465-0.402 4.958 0 0.453 0.176 0.839 0.519 1.16 0.508 0.347 0.895 0.668 1.16 0.961 1.122 1.093 1.68 3.093 1.68 6 0 2.32-0.238 4.16-0.719 5.519-0.8 2.215-1.226 3.481-1.281 3.801l-0.719 1.519c0.746-0.8 1.829-1.867 3.243-3.203 1.73-1.652 3.343-3.238 4.839-4.757l1.758-5.157zm41 0.278-1.758-0.2-0.203-0.039c0.11 0.239 0.231 0.868 0.364 1.879 0.105 0.934 0.16 1.629 0.16 2.082 0 1.465-1.067 2.586-3.203 3.36-2.133 0.773-5.266 1.16-9.399 1.16-1.492 0-4.305 2.183-8.441 6.558-3.918 4.106-5.879 6.442-5.879 7 0 0.375 0.039 0.602 0.121 0.68 0.078 0.027 0.344 0.055 0.801 0.082 1.972-0.16 3.531-0.441 4.679-0.84 0.934-0.32 1.957-0.48 3.079-0.48 4 0 7.601 1.183 10.8 3.558 3.254 2.426 5.774 5.868 7.559 10.321l0.359 0.679c-0.293-6.078 0.43-10.961 2.16-14.64 1.762-3.758 4.309-5.641 7.641-5.641 1.121 0 2.75 0.387 4.883 1.16 2.156 0.801 3.867 1.203 5.117 1.203 1.547 0 2.652-0.386 3.32-1.16 0.403-0.484 0.602-0.988 0.602-1.523 0-0.344-1.016-0.797-3.039-1.36-2.828-0.773-5.055-1.398-6.684-1.878-6.48-1.973-9.718-4.149-9.718-6.52 0-0.691 0.746-1.375 2.242-2.039 2.16-0.961 4.066-2.387 5.718-4.281l0.04-0.082c-4.293 0.613-6.692 0.933-7.2 0.961-0.535 0.746-1.054 1.613-1.558 2.601-0.989 1.918-1.524 4.024-1.602 6.32-0.082 2.133-1.32 3.559-3.719 4.278-2.773 0.508-4.746 1.055-5.921 1.64 0.96-0.773 2.16-1.679 3.601-2.718 1.68-1.2 2.84-2.149 3.481-2.84 1.89-2.027 2.425-5.121 1.597-9.281zm36.262 3.699c-0.316 0.027-0.629 0.058-0.941 0.101 3.171 1.309 5.613 2.735 7.32 4.282 1.547 1.386 2.265 2.652 2.16 3.8-1.52 0.747-3.988 0.157-7.402-1.761-3.625-2.051-5.547-4.348-5.758-6.879l-1.68-0.68-5.801-2.641c-0.906 0.641-1.359 1.2-1.359 1.68 0 1.281 1.691 3.227 5.078 5.84 3.387 2.668 6.402 4.375 9.043 5.121 1.625 0.453 3.984 0.973 7.078 1.559 3.414 0.668 5.696 1 6.84 1 0.695 0 2.32-0.414 4.883-1.239 2.558-0.8 4.344-1.203 5.359-1.203 0.078 0 2.508 0.293 7.281 0.883-4.855-4.082-9.839-6.363-14.96-6.84-3.813-0.347-5.989-0.574-6.52-0.683-2.719-0.481-5.469-1.438-8.242-2.879l-1.36 0.398-0.441 0.082h-0.16l-0.156 0.039c-0.028 0.004-0.055 0.004-0.082 0l-0.18 0.02zm-135.94 25.387c-1.011-0.723-1.8-1.227-2.359-1.52-1.199-0.613-2.641-1.082-4.32-1.402 0.398 0.215 1.453 0.695 3.16 1.441 2.027 0.906 3.199 1.399 3.519 1.481z" inkscape:connector-curvature="0"/>
      <path id="path36" style="fill-rule:evenodd;fill:#adb7c1" d="m434.88 61.494c1.547-0.371 2.91-0.211 4.082 0.48 1.812 1.094 2.719 3.375 2.719 6.84 0 0.696-0.067 1.348-0.2 1.961-0.054 1.016-0.64 2.574-1.757 4.68-1.575 2.828-2.844 5.148-3.801 6.961 0 2.32-1.082 4.293-3.242 5.918-2.188 1.656-4.825 2.48-7.918 2.48-4.907 2.403-7.469 3.668-7.684 3.801-0.398 0.535-1.012 1.293-1.84 2.281l1.203 0.078c0.532 0 1.934-0.117 4.2-0.359 1.945 0.481 3.851 1.359 5.718 2.641 2.055 1.441 3.774 2.386 5.161 2.84l0.16-0.122c-0.055-0.05-0.973-1.492-2.758-4.32-1.734-2.719-3.055-4.453-3.961-5.199l0.84-0.16 0.801 0.082c1.918 0.586 3.265 1.812 4.039 3.679 0.668 1.68 1.425 2.52 2.281 2.52 0.558 0 1.691-0.695 3.398-2.082 2.082-1.703 3.121-3.359 3.121-4.957 0-1.066-0.226-1.988-0.679-2.762-0.457-0.773-0.684-1.226-0.684-1.359 0-0.242 0.336-0.641 1-1.199 0.91-0.774 1.641-1.586 2.199-2.442 2.11-3.148 3.161-8.105 3.161-14.879 0-4-0.704-7.148-2.118-9.441-1.254-2.082-2.828-3.121-4.718-3.121-0.641 0-1.27 0.215-1.883 0.64-0.852 0.614-1.239 1.469-1.16 2.563l0.32 1.957zm-63.72 14.363c0.426 4.133-1.375 7.559-5.398 10.278-3.551 2.375-7.59 3.562-12.121 3.562-4.907-0.16-8.028-0.203-9.36-0.121-0.215 2.801 0.387 5.027 1.797 6.68 0.961 1.144 2.574 2.238 4.844 3.281 2.691 1.199 4.371 2.066 5.039 2.598 1.547 1.199 2.32 2.789 2.32 4.761-0.027 0.825-0.027 1.68 0 2.559 0.051 1.785 0.172 2.961 0.36 3.519v0.082h2.281c3.84-0.027 7.64-0.199 11.398-0.519 4.774-0.402 7.266-0.602 7.481-0.602v-0.039c-1.867-3.496-4.895-5.812-9.078-6.961-1.762-0.48-2.922-0.972-3.485-1.48-0.929-0.852-1.398-2.281-1.398-4.281 0-3.438 0.453-6.118 1.359-8.039 0.563-1.172 1.563-2.426 3-3.758 1.469-1.336 2.469-2.563 3-3.68 0.906-1.867 1.36-4.469 1.36-7.801 0-0.613-0.211-1.453-0.637-2.519-0.484-1.254-1.082-2.336-1.801-3.242 0.371 0.906 0.559 1.761 0.559 2.562l-0.16 3.879-0.082 0.641v-0.801c-0.079 0.055-0.278 0.078-0.598 0.078s-0.492-0.051-0.52-0.16c-0.054-0.238-0.105-0.399-0.16-0.477zm-1.48-3.203c-0.746-2.051-2.575-3.547-5.481-4.48 2.16 1.629 3.481 2.629 3.961 3 0.399 0.347 0.906 0.843 1.52 1.48zm-6.559-5.199c1.012-0.078 1.707-0.094 2.078-0.039-1.945-0.613-3.597-1.106-4.961-1.481l1.403 0.801c0.8 0.348 1.293 0.586 1.48 0.719zm-21.359 42.16c-1.496-3.894-2.535-6.375-3.121-7.441-0.348-0.586-0.813-1.024-1.403-1.317-0.183 1.172-0.398 1.946-0.636 2.317-0.293 0.453-0.774 0.683-1.442 0.683-0.375-0.109-0.801-0.308-1.281-0.601-0.957-0.641-1.746-1.508-2.359-2.602-0.293-0.879-0.625-1.519-1-1.918-0.508-0.562-1.172-0.84-2-0.84-0.293 0-2.598 0.172-6.918 0.52-4.59 0.398-6.989 0.652-7.204 0.758-2.105 1.203-3.984 2.961-5.636 5.281-1.574 2.187-2.364 4-2.364 5.441 0 0.532 0.204 1.055 0.602 1.559 5.707-0.238 8.961-0.359 9.762-0.359 0.238-0.028 2.652-0.332 7.238-0.922l0.922-0.118c-3.524 0.239-5.551 0.36-6.082 0.36l-2.719-0.039c0-0.082-0.293-0.176-0.883-0.281 0.774-0.641 2.293-2 4.563-4.079 2.078-1.789 3.613-2.683 4.597-2.683 0.403 0 2.387 0.894 5.961 2.683 3.442 1.731 5.348 2.747 5.719 3.039 0.16 0 0.32 0.012 0.481 0.04 1.734 0.16 3.492 0.398 5.281 0.718l-0.039-0.117-0.039-0.082zm53.199-82.078-0.199-0.16-1.364 2.758 1.84-2.278-0.277-0.32zm39.719 39.519c-0.078 0.985-0.614 2.278-1.602 3.879-0.906 1.52-1.703 2.547-2.398 3.082l-0.918 0.68c1.093-1.336 1.851-2.773 2.277-4.32 0.375-1.36 0.563-3.082 0.563-5.16 0-1.575-0.414-3.016-1.243-4.321-1.332-1.84-2.519-3.586-3.558-5.242 1.707-0.16 4.453-0.066 8.238 0.281l0.96-0.204c-1.918-3.629-4.387-5.933-7.398-6.918-1.122-0.347-1.868-0.801-2.243-1.363-0.531-0.852-0.797-2.414-0.797-4.68 0-1.465 0.172-3.293 0.516-5.48 0.297-1.918 0.617-3.547 0.961-4.879l-1.641-0.442c-1.25 1.043-2.32 2.497-3.199 4.36-0.824 1.789-1.238 3.441-1.238 4.961l-0.359 9.922c0 1.519 0.453 2.73 1.359 3.64 0.348 0.317 1.359 0.985 3.039 2 2.906 1.785 4.359 4.637 4.359 8.559 0 4.348-0.652 7.305-1.961 8.879-1.199 1.226-2.265 2.359-3.199 3.402-1.734 1.945-3.492 4.238-5.277 6.879l0.84-0.441c0.773-0.481 2.664-1.586 5.679-3.321 2-1.172 3.481-2.16 4.438-2.957 2.668-2.16 4-5.015 4-8.562 0-0.531-0.067-1.278-0.199-2.239zm-44.16-51.204c-0.375 2.133-2.348 3.746-5.918 4.84-1.79 0.559-2.977 1.012-3.563 1.359-1.039 0.614-1.559 1.465-1.559 2.559s1.028 3.039 3.082 5.84c1.172 1.629 3.145 4.242 5.918 7.84l2.918-5.078c-0.05 0.05-0.531 0.8-1.437 2.238-0.586 0.961-1.039 1.519-1.359 1.68-1.067-1.52-1.934-2.786-2.602-3.801-1.281-1.918-1.934-3.117-1.961-3.598 1.441-0.988 4.535-2.949 9.281-5.879l-0.082-1.062v-0.141l-0.039-0.398c-0.027-0.055-0.039-0.106-0.039-0.16l-0.359-2.719c0-0.906-0.16-1.696-0.481-2.36-0.347-0.64-0.761-0.961-1.242-0.961l-0.558-0.199zm-29.399 88.199c0.106-1.628-0.894-3.335-3-5.121-3.519-2.961-6.066-5.441-7.641-7.441 2.372 0.613 5.481 1.148 9.321 1.602 1.707 0.214 2.679 0.8 2.918 1.761v9.199h-1.598zm-52.12-87.726c2.32 0.402 4.359 1.601 6.121 3.601 1.359 1.575 2.305 3.348 2.84 5.321-0.695-2.293-2.066-3.907-4.121-4.84-1.574-0.559-2.785-1.016-3.641-1.36-1.519-0.585-2.773-1.308-3.758-2.16 1.547 1.598 3.957 3.664 7.239 6.2 2.64 2.054 4.187 3.453 4.64 4.199v0.039c0.055 0.562 0.082 1.121 0.082 1.683-0.054 0.317-0.679 1.481-1.882 3.481-0.852 1.387-1.442 2.707-1.758 3.957 0.558-1.25 2.183-3.293 4.879-6.117 2.851-2.989 4.281-5.203 4.281-6.641 0-0.613-0.281-1.094-0.84-1.441-2.48-1.492-5.652-3.453-9.52-5.879-0.8 0.051-1.882 0.051-3.242 0-0.48 0-0.922-0.016-1.32-0.043zm-82.039 96.203c0.133-1.309 0.785-2.828 1.961-4.563 1.144-1.679 1.719-3.039 1.719-4.078 0-7.656-1.696-12.507-5.082-14.562-1.707-0.77-2.879-1.344-3.52-1.719-1.066-0.613-1.601-1.574-1.601-2.879 0-0.375 0.773-1.426 2.32-3.16 1.762-1.973 3.762-3.879 6-5.719 6.508-5.336 12.496-8 17.961-8 3.386 0 7.093 1.465 11.121 4.399 4 2.906 6 5.558 6 7.961 0 5.945-1.453 10.16-4.363 12.64-1.891 1.625-5.09 2.813-9.598 3.559-4.879 0.801-8.094 1.68-9.641 2.64-2.906 1.84-4.359 5.172-4.359 10 0 0.692 0.254 1.266 0.758 1.719l1.523-1.16c0.211-1.305 1-2.652 2.36-4.039 2.023-2.027 4.679-3.039 7.957-3.039 1.308 0 2.453-0.668 3.441-2 0.988-1.309 2.375-1.961 4.16-1.961 1.68 0 2.852 0.266 3.52 0.801 0.535 0.453 0.972 1.344 1.32 2.679h2.68c3.601-4.242 5.398-14.894 5.398-31.96 0-3.012-1.613-6.188-4.84-9.52-3.144-3.227-6-4.84-8.558-4.84-0.668 0-1.453 0.653-2.36 1.961-1.414 2.024-2.547 3.453-3.402 4.277-4.211 4.188-10.906 6.282-20.078 6.282-6.719 0-12.641-2.082-17.762-6.239-0.184-0.136-1.758-1.546-4.719-4.242-1.414-1.304-2.507-1.957-3.281-1.957-0.613 0-2.797 0.356-6.558 1.078-3.84 0.719-6.079 1.227-6.719 1.52l-0.321 0.16c0.856-0.133 2.243-0.199 4.161-0.199 3.546 0 8.082 2.187 13.601 6.558 5.387 4.239 8.078 7.536 8.078 9.879 0 1.282-0.558 2.387-1.679 3.321-1.094 0.906-2.36 1.359-3.797 1.359-0.27 0-0.817-0.117-1.641-0.359-0.855-0.239-1.414-0.36-1.68-0.36-0.453 0-1.761 1.508-3.921 4.52-2.348 3.281-3.52 5.789-3.52 7.519 0 1.309 0.855 2.414 2.559 3.321 0.027 0 1.921 0.761 5.679 2.281 5.496 2.215 8.242 5.574 8.242 10.078 0 0.48-0.414 1.949-1.242 4.402-0.879 2.504-1.371 3.907-1.476 4.2 2.343-0.614 4.144-1.2 5.398-1.762 1.039-0.317 3.641-0.586 7.801-0.797zm-67.441-3.52c0.292-0.136 0.601-0.253 0.921-0.363 1.547-0.531 2.625-0.746 3.239-0.637 1.199 0 2.215 0.09 3.039 0.278h0.679c0.43-0.106 0.657-0.414 0.68-0.918 0.055-2.403-0.613-4.961-2-7.68-1.492-2.883-3.453-5.203-5.879-6.961-3.734-2.695-6.011-5.629-6.84-8.801-0.187-0.718-0.398-1.558-0.64-2.519-0.239-0.613-0.731-0.922-1.481-0.922-1.437 0-2.625 0.32-3.558 0.961-0.239 0.187-0.985 0.906-2.239 2.16-2.082 2.082-5.214 3.121-9.402 3.121-1.625 0-3.227-0.359-4.801-1.082-1.57-0.691-3.066-1.039-4.476-1.039-1.922 0-4.336 0.254-7.242 0.762-2.907 0.558-4.774 0.906-5.598 1.039l-1.281 0.16 6.879-0.242c3.761 0 6.921 0.629 9.48 1.883 3.254 1.625 5.746 4.332 7.48 8.117 1.2 2.64 3.934 4.64 8.2 6 1.894 0.617 3.175 1.187 3.84 1.722 1.093 0.825 1.64 2.028 1.64 3.598 0 0.856-0.773 2.227-2.32 4.121-1.652 2.028-3.547 3.828-5.68 5.399 0.774-0.051 2.719-0.731 5.84-2.039 3.172-1.305 5.227-2.293 6.16-2.961 0.801-2.106 1.199-3.598 1.199-4.477 0-1.84-2.199-4.883-6.597-9.121-3.76-3.657-6.35-5.845-7.76-6.564l-1.441-0.32c0.507-0.215 1.054-0.32 1.64-0.32 0.535 0 3.028 0.199 7.481 0.597 0.988 0 3.132 1.707 6.441 5.122 3.492 3.601 5.238 6.281 5.238 8.039 0 1.039-0.039 1.64-0.121 1.8-0.316 0.508-0.718 1.239-1.199 2.2 0.055-0.028 0.215-0.067 0.481-0.118zm-102.8 8.957c-1.653-3.171-3.16-5.332-4.52-6.48-1.094-0.957-2.371-1.438-3.84-1.438-1.574 0-3.132 0.239-4.679 0.719-2.133 0.641-4.039 1.696-5.719 3.16l1 0.161c4.879 0.878 7.945 1.414 9.199 1.601 0.586 0.133 3.442 0.891 8.559 2.277zm-51.798-17.04c4.453 2.614 7.785 4.067 10 4.36 0.238 0.027 1.183 0.066 2.84 0.121 1.277 0.055 2.57 0.226 3.879 0.519 0.531 0.106 1.093 0.282 1.679 0.52 0.239-1.281 0.36-4.227 0.36-8.84 0-0.824-0.121-2.48-0.36-4.961-0.32-2.906-0.613-4.664-0.879-5.277 0.184 1.172 0.348 2.851 0.481 5.039 0.078 1.601 0.117 2.785 0.117 3.558l-0.039 3.558-1.078-3.441c-0.75-2.348-1.121-3.68-1.121-4 0-4.106-1.762-7.215-5.281-9.321-3.145-1.867-6.547-2.441-10.2-1.719l1.16-0.601c-0.453 0.105-0.96 0.281-1.519 0.519-0.75 0.348-1.121 0.668-1.121 0.961 0.265 2.293 0.375 3.879 0.32 4.762v0.438c0.078-0.051 1.227-1.133 3.442-3.239 0.796-0.746 1.878-1.121 3.238-1.121 2.215 0 3.601 0.946 4.16 2.84 0.266 0.879 0.398 2.922 0.398 6.121 0 1.84-0.093 2.973-0.277 3.399-0.133 0.402-0.562 0.679-1.281 0.839-2.828 0.614-5.801 2.266-8.918 4.961zm29-55.918-3.121 1.719 1.359-0.519c1.625-0.375 2.867-0.559 3.719-0.559 2.109 0 3.613 0.117 4.519 0.359 0.801 0.239 1.696 0.774 2.68 1.598l0.043 0.043c0.481 0.531 0.934 1.332 1.359 2.398 0.133 0.321 0.239 0.598 0.321 0.84 0.664 1.575 1.492 3.664 2.48 6.278 0 0.269-0.215 0.535-0.64 0.8-0.426 0.265-0.641 0.531-0.641 0.796 0 0.321 0.238 0.867 0.719 1.641 0.453 0.801 0.679 1.32 0.679 1.558 0 0.829-0.171 1.481-0.519 1.961-0.184 0.215-1.691 1.36-4.52 3.442 0.801-0.188 2.348-0.36 4.641-0.52 1.945-0.16 3.227-0.242 3.84-0.242 3.094 0 5.906 2.32 8.441 6.961 2.078 4.906 3.25 7.625 3.52 8.16l-0.641-0.16c-0.293-0.027 0.559 0.398 2.559 1.281-0.106 2.481-0.531 3.813-1.278 4-1.921-0.082-4.054 0.051-6.402 0.399l1.602 0.16c2.746 0.105 6.464 2.402 11.16 6.879 4.453 4.722 6.961 7.363 7.519 7.922 0.239-7.309 2.934-12.762 8.078-16.36 1.414-0.961 3.575-2.242 6.481-3.84 2.48-1.519 4.293-3.066 5.441-4.64-3.039 0.238-6.48 1.304-10.32 3.199-3.734 1.84-5.746 2.762-6.039 2.762-4.535 0-10.281-4.547-17.242-13.641-1.227-1.601-3.731-5.094-7.52-10.48-2.613-3.735-4.465-6.094-5.558-7.082-0.934-1.68-2.414-3.293-4.442-4.84-2.558-2-5.066-3-7.519-3-0.508 0-1.2 0.054-2.078 0.16-1.067 0.16-1.961 0.348-2.68 0.562zm22.476-8.8c1.657-0.614 2.868-1.586 3.641-2.922 0.773-1.332 0.922-2.735 0.441-4.199-0.507-1.442-1.492-2.52-2.96-3.239-1.465-0.722-2.973-0.933-4.52-0.64-0.559-0.215-1.32-0.547-2.281-1-1.199-0.563-2-1.016-2.399-1.36l-1.879-0.48-0.921-0.281c0.453 0.64 1.175 1.453 2.16 2.441 1.121 1.117 2 1.84 2.64 2.16l1.36-0.121c1.547 0 2.574 0.375 3.082 1.121 0.371 0.504 0.625 1.547 0.758 3.117l1.16 1.442h-0.918c0.133 0.558 0.211 1.117 0.238 1.679 0.055 0.293-0.188 1.254-0.719 2.883-0.562 1.785-0.867 2.879-0.922 3.278l0.321-0.801c0.375-0.774 0.945-1.801 1.718-3.078zm43.563-4.248-3.481-3.078c-0.32-0.265-0.972-0.722-1.96-1.359-0.985-0.668-1.559-1.027-1.719-1.082l0.039 0.082c3.949 7.73 6.348 12.227 7.199 13.48 0.586 0.852 1.309 1.454 2.16 1.801 0.481 0.184 1.828 0.516 4.039 1 0.641 0.133 2.75 1.211 6.321 3.238 3.761 2.106 6.308 3.375 7.64 3.801 2.321 0.719 5.414 1.172 9.281 1.36 2.801 0.132 5.161 0.906 7.079 2.32l-0.161-0.762c-0.183-0.371-0.933-1.105-2.238-2.199-1.039-0.879-1.785-1.469-2.238-1.758-0.11-0.054-0.188-0.094-0.242-0.121-0.239-0.109-2.465-0.828-6.68-2.16 0.238 0.266 0.398 0.547 0.48 0.84l-1.96-1.16c-0.321-0.082-1.493-0.575-3.52-1.481-1.707-0.746-2.762-1.226-3.16-1.441-5.199-0.692-9.254-2.024-12.16-4-2.801-1.946-4.375-4.387-4.719-7.321zm80-7.48 0.48-2.477c-1.496 1.516-3.109 3.106-4.839 4.758-1.414 1.332-2.497 2.399-3.243 3.199l0.719-1.519c-1.066 0.402-2.117 0.601-3.156 0.601-3.121 0-5.949-0.601-8.481-1.8l-1.242-0.602 6.242 4.363c2.481 1.731 4.758 2.879 6.84 3.438 0.453 0.133 1.879 0.348 4.278 0.641-1.094-0.348-1.797-0.575-2.118-0.68-0.668-0.188-1.507-0.613-2.519-1.281l-0.16-0.239c1.57-0.91 3.05-1 4.437-0.281 0.856 0.426 2.375 1.691 4.563 3.801-1.414-0.43-2.59-0.801-3.524-1.121 0.11 0.078 0.254 0.172 0.442 0.281 0.48 0.32 0.812 0.559 1 0.719 0.32 0.293 0.707 1 1.16 2.121 0.719 1.785 2.027 5.453 3.922 11 0.371-3.121-0.535-7.254-2.723-12.402-2.293-5.387-3.437-8.133-3.437-8.239 0-1.308 0.132-2.203 0.398-2.679 0.188-0.293 0.508-0.829 0.961-1.602zm0.078-0.199c0.133-0.266 0.563-1.293 1.281-3.078 0.348-0.883 0.641-1.614 0.879-2.2l-0.039-0.402-0.16 0.481-0.961 2.281c-0.398 1.039-0.734 2.012-1 2.918zm2.16-7.438 0.403-1.043c0.398-0.718 0.679-1.226 0.839-1.519 0.079-0.106 0.426-0.399 1.039-0.879l0.641-0.961c0.08-0.559-0.12-1.547-0.6-2.961-0.51-1.52-0.76-2.531-0.76-3.039l-1.321-0.758c0.079 1.973-0.414 3.332-1.48 4.078-1.066 0.774-1.602 1.332-1.602 1.68s0.481 0.922 1.442 1.719c0.933 0.8 1.398 2.027 1.398 3.683zm0.442 0.68-0.442 1v0.398c0.266-0.746 0.414-1.214 0.442-1.398zm78.398 48.277c-2.426-2.613-5.16-3.851-8.199-3.718l-0.399-0.079 6.438-0.16c1.894 0 3.281 0.239 4.16 0.719 1.094 0.559 1.934 1.652 2.52 3.281 0.988 2.77 1.773 9.907 2.363 21.399l-3.242-7.121c0.695-6.184-0.52-10.961-3.641-14.321zm-2.52-44.879c-0.692-0.027-1.918-0.214-3.68-0.558 0.215 2.531 2.133 4.824 5.758 6.879 3.414 1.918 5.882 2.508 7.402 1.761 0.105-1.148-0.613-2.414-2.16-3.8-1.707-1.547-4.149-2.973-7.32-4.282zm-29.399 78.922c-5.199-5.601-9.535-9.297-13-11.082-2.535-1.304-5.601-1.945-9.199-1.918h-0.481c0.454-0.297 1.426-0.535 2.918-0.722 1.282-0.161 2.563-0.239 3.84-0.239 3.176 0 5.774 0.625 7.801 1.879 3.172 2 5.762 5.746 7.762 11.242l0.359 0.84zm-5.12-82.683-0.8-0.039c0.828 4.16 0.293 7.254-1.597 9.281-0.641 0.691-1.801 1.64-3.481 2.84-1.441 1.039-2.641 1.949-3.601 2.718 1.175-0.585 3.148-1.132 5.921-1.64 2.399-0.719 3.637-2.145 3.719-4.278 0.078-2.292 0.613-4.402 1.602-6.32 0.504-0.988 1.023-1.851 1.558-2.601l-3.32 0.039zm-129.88 36.281c3.227 0 5.984 0.988 8.277 2.961 2.27 2 3.403 4.414 3.403 7.238 0.293 0.641 0.597 1.387 0.918 2.242l0.082 0.321c0.664 4.746 1 7.226 1 7.437 1.465-1.492 2.84-3.824 4.121-7 1.199-2.957 1.797-5.265 1.797-6.918 0-3.066-1-5.894-3-8.48-2.106-2.746-4.547-4.121-7.321-4.121-1.785 0-3.332 0.375-4.636 1.121-1.469 0.828-3.469 1.32-6 1.48-1.282 0.082-4.496 0.067-9.641-0.039-5.043-0.109-7.695-0.16-7.961-0.16-0.773 0-1.988 0.437-3.64 1.32-1.282 0.664-2.415 1.36-3.399 2.078l-1.281 0.961c2.215-1.226 4.828-1.84 7.84-1.84 1.625 0 4.48 0.211 8.558 0.641 4.297 0.453 7.922 0.707 10.883 0.758zm8.879 6.402c-0.668-1.734-2.105-3.187-4.32-4.363l4.32 4.363zm-47.762-29.441c0 0.027 0.016 0.066 0.043 0.117 0-0.023 0.067 0.043 0.199 0.203l-0.242-0.32z" inkscape:connector-curvature="0"/>
      <path id="path38" style="fill-rule:evenodd;fill:#8e9ea8" d="m434.68 67.056c0.265-2.265 0.332-4.121 0.199-5.562l-0.32-1.957c-0.079-1.094 0.308-1.949 1.16-2.563 0.613-0.425 1.242-0.64 1.883-0.64 1.89 0 3.464 1.043 4.718 3.121 1.414 2.293 2.118 5.441 2.118 9.441 0 6.774-1.051 11.735-3.161 14.879-0.558 0.852-1.289 1.668-2.199 2.442-0.664 0.558-1 0.957-1 1.199 0 0.133 0.227 0.586 0.684 1.359 0.453 0.774 0.679 1.696 0.679 2.762 0 1.598-1.043 3.254-3.121 4.957-1.707 1.387-2.84 2.082-3.398 2.082-0.856 0-1.613-0.84-2.281-2.52-0.774-1.867-2.121-3.093-4.039-3.679l-0.801-0.082-0.84 0.16c0.906 0.746 2.227 2.48 3.961 5.199 1.785 2.828 2.703 4.27 2.758 4.32 7.547-6.664 12.558-13.48 15.039-20.437 1.386-3.895 2.082-8.867 2.082-14.922 0-2.664-0.735-4.894-2.199-6.68-2.536-2.613-4.868-5.332-7-8.16-1.067-1.441-1.735-4.613-2-9.519-1.043-4.668-4.227-7.946-9.563-9.84-0.348 1.332-0.664 2.961-0.961 4.879-0.344 2.187-0.516 4.015-0.516 5.48 0 2.27 0.266 3.828 0.797 4.684 0.375 0.558 1.121 1.012 2.243 1.359 3.011 0.985 5.48 3.293 7.398 6.918l-0.961 0.199c-3.785-0.347-6.531-0.437-8.238-0.277 1.039 1.652 2.226 3.398 3.558 5.238 0.829 1.305 1.243 2.746 1.243 4.321 0 2.078-0.188 3.8-0.563 5.16-0.426 1.547-1.184 2.984-2.277 4.32l0.918-0.68c0.695-0.535 1.492-1.562 2.398-3.082 0.988-1.601 1.524-2.894 1.602-3.879zm-69.481 0.36c-0.371-0.055-1.066-0.039-2.078 0.039h-1.762c0.829 0.055 1.774 0.293 2.84 0.719 2.906 0.933 4.735 2.429 5.481 4.48 0.132 0.16 0.375 0.695 0.718 1.602 0.348 0.879 0.602 1.414 0.762 1.601 0.051 0.078 0.106 0.239 0.16 0.477 0.028 0.109 0.2 0.16 0.52 0.16s0.519-0.023 0.598-0.078v0.801l0.082-0.641 0.16-3.879c0-0.801-0.188-1.656-0.559-2.562-0.613-0.801-1.629-1.481-3.043-2.039-1.414-0.559-2.703-0.786-3.879-0.68zm26.199-34.199 2-3.082 1.364-2.762-0.121-0.156c-0.586-1.469-0.973-2.453-1.161-2.961-0.105-0.239-0.16-0.375-0.16-0.399-4.746 2.93-7.84 4.891-9.281 5.879 0.027 0.481 0.684 1.68 1.961 3.598 0.668 1.015 1.535 2.281 2.602 3.801 0.32-0.161 0.773-0.719 1.359-1.68 0.906-1.438 1.387-2.188 1.437-2.238zm-30.277 70.839h1.598v-9.199c-0.239-0.961-1.211-1.551-2.918-1.761-3.84-0.454-6.949-0.989-9.321-1.602 1.575 2 4.122 4.48 7.641 7.441 2.106 1.786 3.106 3.493 3 5.121zm-36.199 6 9.277-1h1.879c-0.371-0.292-2.277-1.308-5.719-3.039-3.57-1.789-5.558-2.683-5.957-2.683-0.988 0-2.523 0.894-4.601 2.683-2.266 2.079-3.785 3.438-4.559 4.079 0.586 0.105 0.879 0.199 0.879 0.281l2.719 0.039c0.535 0 2.558-0.121 6.082-0.36zm-18.481-93.16c0.985 0.852 2.239 1.575 3.758 2.16 0.856 0.348 2.067 0.801 3.641 1.36 2.055 0.933 3.426 2.547 4.121 4.84-0.535-1.973-1.481-3.746-2.84-5.321-1.762-2-3.801-3.199-6.121-3.601-0.719-0.024-1.332-0.078-1.84-0.16l-2.64-0.68c0.988 0.535 1.628 1 1.921 1.402zm-68.281 92.719c1.414-0.984 3.442-2.133 6.078-3.441l0.961-0.36c3.84-1.304 6.574-2.293 8.199-2.957 0.293-0.082 2.801-0.347 7.524-0.801-0.348-1.335-0.789-2.226-1.32-2.679-0.668-0.535-1.84-0.801-3.524-0.801-1.785 0-3.172 0.652-4.156 1.961-0.988 1.332-2.133 2-3.442 2-3.281 0-5.933 1.012-7.96 3.039-1.36 1.387-2.145 2.734-2.36 4.039zm-231.68-29.165-1.16 0.601c3.653-0.722 7.055-0.148 10.2 1.719 3.519 2.106 5.281 5.215 5.281 9.321 0 0.32 0.371 1.652 1.121 4l1.078 3.441 0.039-3.563c0-0.773-0.039-1.957-0.117-3.558-0.137-2.188-0.297-3.867-0.481-5.039-0.535-2.348-1.546-4.375-3.043-6.082-1.812-2.078-3.984-3.121-6.519-3.121-1.332 0-2.559 0.297-3.68 0.882-1.144 0.692-2.054 1.161-2.719 1.399zm55.68 1.121 0.641 0.16c-0.266-0.535-1.442-3.254-3.52-8.16-2.535-4.641-5.347-6.961-8.441-6.961-0.613 0-1.895 0.082-3.84 0.242-2.293 0.16-3.84 0.332-4.641 0.52-1.199 0.32-1.906 0.547-2.121 0.679-0.078 0.051-0.586 0.625-1.519 1.719l1-0.441c1.281-0.317 2.519-0.477 3.722-0.477 0.106 0 0.891 0.106 2.36 0.317 1.547 0.242 2.504 0.414 2.879 0.523l0.922 0.399c0.664 0.293 2.519 2.238 5.558 5.839 2.906 3.387 5.238 5.266 7 5.641zm116.08-46.281c0.934 0.32 2.11 0.695 3.524 1.121-2.188-2.11-3.707-3.375-4.563-3.801-1.387-0.719-2.867-0.625-4.437 0.281l0.16 0.239c1.012 0.668 1.851 1.093 2.519 1.281 0.321 0.105 1.028 0.332 2.118 0.68 0.082 0.027 0.175 0.039 0.281 0.039 0.055 0 0.187 0.054 0.398 0.16zm82.801 30.519c3.121 3.36 4.336 8.137 3.641 14.321l3.242 7.121c-0.586-11.492-1.375-18.629-2.36-21.399-0.589-1.629-1.429-2.722-2.523-3.281-0.879-0.48-2.266-0.719-4.16-0.719l-6.438 0.16 0.399 0.079c3.039-0.133 5.773 1.105 8.199 3.718zm-31.918 34.043-0.359-0.84c-2-5.496-4.59-9.242-7.762-11.242-2.027-1.254-4.625-1.879-7.801-1.879-1.277 0-2.558 0.078-3.84 0.239-1.492 0.187-2.464 0.429-2.918 0.722h0.481c3.598-0.027 6.664 0.614 9.199 1.918 3.465 1.785 7.801 5.481 13 11.082zm-70.082 9.278c0.481-0.961 0.883-1.692 1.199-2.2 0.082-0.16 0.121-0.761 0.121-1.8 0-1.758-1.746-4.438-5.238-8.039-3.309-3.415-5.453-5.122-6.441-5.122-4.453-0.398-6.946-0.597-7.481-0.597-0.586 0-1.133 0.105-1.64 0.32l1.441 0.32c1.414 0.719 4 2.907 7.762 6.559 4.398 4.238 6.597 7.281 6.597 9.121 0 0.879-0.398 2.371-1.199 4.477l1.442-1.039c0.078-0.051 1.023-0.598 2.839-1.641 0.184-0.105 0.387-0.227 0.598-0.359zm-64.918-55.68 4.559 2.039c2.215 1.176 3.652 2.629 4.32 4.363 0.055 0.133 0.535 1.024 1.441 2.68 0.907 1.68 1.438 2.625 1.598 2.84l0.121 0.84h0.641l-0.082-0.321-0.68-0.519-0.238-1.723c0-2.824-1.133-5.238-3.403-7.238-2.293-1.973-5.05-2.961-8.277-2.961zm30.878-6.923c-0.879-0.773-3.227-2.508-7.039-5.203-4.133-2.93-7.055-4.891-8.762-5.879-1.812-0.16-3.387-0.414-4.719-0.758-0.242-0.137-0.558-0.336-0.96-0.601-2.266-1.36-3.454-2.067-3.559-2.122 0.344 2.934 1.918 5.375 4.719 7.321 2.906 1.972 6.961 3.308 12.16 4 1.68 0.32 3.121 0.789 4.32 1.402 0.559 0.293 1.348 0.797 2.36 1.52l1.96 1.156c-0.082-0.289-0.242-0.57-0.48-0.836zm-69.52-15.801 0.04 0.082 0.242 1.438h0.918l-1.16-1.438c-0.133-1.574-0.387-2.617-0.758-3.121-0.508-0.746-1.535-1.121-3.082-1.121l-1.36 0.121-0.84 0.359c0.481 0.293 1.415 0.614 2.801 0.961 1.012 0.211 1.84 0.774 2.481 1.68l0.476 0.719 0.242 0.32z" inkscape:connector-curvature="0"/>
    </g>
  </g>
<metadata><rdf:RDF><cc:Work><dc:format>image/svg+xml</dc:format><dc:type rdf:resource="http://purl.org/dc/dcmitype/StillImage"/><cc:license rdf:resource="http://creativecommons.org/licenses/publicdomain/"/><dc:publisher><cc:Agent rdf:about="http://openclipart.org/"><dc:title>Openclipart</dc:title></cc:Agent></dc:publisher></cc:Work><cc:License rdf:about="http://creativecommons.org/licenses/publicdomain/"><cc:permits rdf:resource="http://creativecommons.org/ns#Reproduction"/><cc:permits rdf:resource="http://creativecommons.org/ns#Distribution"/><cc:permits rdf:resource="http://creativecommons.org/ns#DerivativeWorks"/></cc:License></rdf:RDF></metadata></svg>
